# Tiled2Unity generated file. Do not modify by hand.
# Wavefront file for 'zelda_Test_Town_mesh_0002.obj'

# Vertices (Count = 488)
v -24 -1 0
v -25 -1 0
v -25 0 0
v -24 0 0
v -23 -1 0
v -24 -1 0
v -24 0 0
v -23 0 0
v -22 -1 0
v -23 -1 0
v -23 0 0
v -22 0 0
v -21 -1 0
v -22 -1 0
v -22 0 0
v -21 0 0
v -20 -1 0
v -21 -1 0
v -21 0 0
v -20 0 0
v -19 -1 0
v -20 -1 0
v -20 0 0
v -19 0 0
v -16 -1 0
v -17 -1 0
v -17 0 0
v -16 0 0
v -15 -1 0
v -16 -1 0
v -16 0 0
v -15 0 0
v -14 -1 0
v -15 -1 0
v -15 0 0
v -14 0 0
v -13 -1 0
v -14 -1 0
v -14 0 0
v -13 0 0
v -12 -1 0
v -13 -1 0
v -13 0 0
v -12 0 0
v -11 -1 0
v -12 -1 0
v -12 0 0
v -11 0 0
v -10 -1 0
v -11 -1 0
v -11 0 0
v -10 0 0
v -9 -1 0
v -10 -1 0
v -10 0 0
v -9 0 0
v -8 -1 0
v -9 -1 0
v -9 0 0
v -8 0 0
v -5 -1 0
v -6 -1 0
v -6 0 0
v -5 0 0
v -4 -1 0
v -5 -1 0
v -5 0 0
v -4 0 0
v -3 -1 0
v -4 -1 0
v -4 0 0
v -3 0 0
v -2 -1 0
v -3 -1 0
v -3 0 0
v -2 0 0
v -1 -1 0
v -2 -1 0
v -2 0 0
v -1 0 0
v 0 -1 0
v -1 -1 0
v -1 0 0
v 0 0 0
v -24 -2 0
v -25 -2 0
v -25 -1 0
v -24 -1 0
v 0 -2 0
v -1 -2 0
v -1 -1 0
v 0 -1 0
v -24 -3 0
v -25 -3 0
v -25 -2 0
v -24 -2 0
v 0 -3 0
v -1 -3 0
v -1 -2 0
v 0 -2 0
v -24 -4 0
v -25 -4 0
v -25 -3 0
v -24 -3 0
v 0 -4 0
v -1 -4 0
v -1 -3 0
v 0 -3 0
v -24 -5 0
v -25 -5 0
v -25 -4 0
v -24 -4 0
v 0 -5 0
v -1 -5 0
v -1 -4 0
v 0 -4 0
v -24 -6 0
v -25 -6 0
v -25 -5 0
v -24 -5 0
v 0 -6 0
v -1 -6 0
v -1 -5 0
v 0 -5 0
v -24 -7 0
v -25 -7 0
v -25 -6 0
v -24 -6 0
v -14 -7 0
v -15 -7 0
v -15 -6 0
v -14 -6 0
v -13 -7 0
v -14 -7 0
v -14 -6 0
v -13 -6 0
v -12 -7 0
v -13 -7 0
v -13 -6 0
v -12 -6 0
v -11 -7 0
v -12 -7 0
v -12 -6 0
v -11 -6 0
v -10 -7 0
v -11 -7 0
v -11 -6 0
v -10 -6 0
v 0 -7 0
v -1 -7 0
v -1 -6 0
v 0 -6 0
v -24 -8 0
v -25 -8 0
v -25 -7 0
v -24 -7 0
v 0 -8 0
v -1 -8 0
v -1 -7 0
v 0 -7 0
v -24 -9 0
v -25 -9 0
v -25 -8 0
v -24 -8 0
v 0 -9 0
v -1 -9 0
v -1 -8 0
v 0 -8 0
v -24 -10 0
v -25 -10 0
v -25 -9 0
v -24 -9 0
v 0 -10 0
v -1 -10 0
v -1 -9 0
v 0 -9 0
v -24 -11 0
v -25 -11 0
v -25 -10 0
v -24 -10 0
v 0 -11 0
v -1 -11 0
v -1 -10 0
v 0 -10 0
v -24 -12 0
v -25 -12 0
v -25 -11 0
v -24 -11 0
v -15 -12 0
v -16 -12 0
v -16 -11 0
v -15 -11 0
v -14 -12 0
v -15 -12 0
v -15 -11 0
v -14 -11 0
v 0 -12 0
v -1 -12 0
v -1 -11 0
v 0 -11 0
v -24 -13 0
v -25 -13 0
v -25 -12 0
v -24 -12 0
v -15 -13 0
v -16 -13 0
v -16 -12 0
v -15 -12 0
v -14 -13 0
v -15 -13 0
v -15 -12 0
v -14 -12 0
v 0 -13 0
v -1 -13 0
v -1 -12 0
v 0 -12 0
v 0 -14 0
v -1 -14 0
v -1 -13 0
v 0 -13 0
v 0 -15 0
v -1 -15 0
v -1 -14 0
v 0 -14 0
v 0 -16 0
v -1 -16 0
v -1 -15 0
v 0 -15 0
v -24 -17 0
v -25 -17 0
v -25 -16 0
v -24 -16 0
v -16 -17 0
v -17 -17 0
v -17 -16 0
v -16 -16 0
v -15 -17 0
v -16 -17 0
v -16 -16 0
v -15 -16 0
v -14 -17 0
v -15 -17 0
v -15 -16 0
v -14 -16 0
v -13 -17 0
v -14 -17 0
v -14 -16 0
v -13 -16 0
v -24 -18 0
v -25 -18 0
v -25 -17 0
v -24 -17 0
v -24 -19 0
v -25 -19 0
v -25 -18 0
v -24 -18 0
v -24 -20 0
v -25 -20 0
v -25 -19 0
v -24 -19 0
v -14 -20 0
v -15 -20 0
v -15 -19 0
v -14 -19 0
v -13 -20 0
v -14 -20 0
v -14 -19 0
v -13 -19 0
v -12 -20 0
v -13 -20 0
v -13 -19 0
v -12 -19 0
v -11 -20 0
v -12 -20 0
v -12 -19 0
v -11 -19 0
v -24 -21 0
v -25 -21 0
v -25 -20 0
v -24 -20 0
v -20 -21 0
v -21 -21 0
v -21 -20 0
v -20 -20 0
v -14 -21 0
v -15 -21 0
v -15 -20 0
v -14 -20 0
v -13 -21 0
v -14 -21 0
v -14 -20 0
v -13 -20 0
v -12 -21 0
v -13 -21 0
v -13 -20 0
v -12 -20 0
v -11 -21 0
v -12 -21 0
v -12 -20 0
v -11 -20 0
v 0 -21 0
v -1 -21 0
v -1 -20 0
v 0 -20 0
v -24 -22 0
v -25 -22 0
v -25 -21 0
v -24 -21 0
v -14 -22 0
v -15 -22 0
v -15 -21 0
v -14 -21 0
v -13 -22 0
v -14 -22 0
v -14 -21 0
v -13 -21 0
v -12 -22 0
v -13 -22 0
v -13 -21 0
v -12 -21 0
v -11 -22 0
v -12 -22 0
v -12 -21 0
v -11 -21 0
v 0 -22 0
v -1 -22 0
v -1 -21 0
v 0 -21 0
v -24 -23 0
v -25 -23 0
v -25 -22 0
v -24 -22 0
v -14 -23 0
v -15 -23 0
v -15 -22 0
v -14 -22 0
v -13 -23 0
v -14 -23 0
v -14 -22 0
v -13 -22 0
v -12 -23 0
v -13 -23 0
v -13 -22 0
v -12 -22 0
v -11 -23 0
v -12 -23 0
v -12 -22 0
v -11 -22 0
v -3 -23 0
v -4 -23 0
v -4 -22 0
v -3 -22 0
v -2 -23 0
v -3 -23 0
v -3 -22 0
v -2 -22 0
v 0 -23 0
v -1 -23 0
v -1 -22 0
v 0 -22 0
v -24 -24 0
v -25 -24 0
v -25 -23 0
v -24 -23 0
v -14 -24 0
v -15 -24 0
v -15 -23 0
v -14 -23 0
v -13 -24 0
v -14 -24 0
v -14 -23 0
v -13 -23 0
v -12 -24 0
v -13 -24 0
v -13 -23 0
v -12 -23 0
v -3 -24 0
v -4 -24 0
v -4 -23 0
v -3 -23 0
v -2 -24 0
v -3 -24 0
v -3 -23 0
v -2 -23 0
v 0 -24 0
v -1 -24 0
v -1 -23 0
v 0 -23 0
v -24 -25 0
v -25 -25 0
v -25 -24 0
v -24 -24 0
v -23 -25 0
v -24 -25 0
v -24 -24 0
v -23 -24 0
v -22 -25 0
v -23 -25 0
v -23 -24 0
v -22 -24 0
v -21 -25 0
v -22 -25 0
v -22 -24 0
v -21 -24 0
v -20 -25 0
v -21 -25 0
v -21 -24 0
v -20 -24 0
v -19 -25 0
v -20 -25 0
v -20 -24 0
v -19 -24 0
v -18 -25 0
v -19 -25 0
v -19 -24 0
v -18 -24 0
v -17 -25 0
v -18 -25 0
v -18 -24 0
v -17 -24 0
v -16 -25 0
v -17 -25 0
v -17 -24 0
v -16 -24 0
v -15 -25 0
v -16 -25 0
v -16 -24 0
v -15 -24 0
v -14 -25 0
v -15 -25 0
v -15 -24 0
v -14 -24 0
v -13 -25 0
v -14 -25 0
v -14 -24 0
v -13 -24 0
v -12 -25 0
v -13 -25 0
v -13 -24 0
v -12 -24 0
v -11 -25 0
v -12 -25 0
v -12 -24 0
v -11 -24 0
v -10 -25 0
v -11 -25 0
v -11 -24 0
v -10 -24 0
v -9 -25 0
v -10 -25 0
v -10 -24 0
v -9 -24 0
v -8 -25 0
v -9 -25 0
v -9 -24 0
v -8 -24 0
v -7 -25 0
v -8 -25 0
v -8 -24 0
v -7 -24 0
v -6 -25 0
v -7 -25 0
v -7 -24 0
v -6 -24 0
v -5 -25 0
v -6 -25 0
v -6 -24 0
v -5 -24 0
v -4 -25 0
v -5 -25 0
v -5 -24 0
v -4 -24 0
v -3 -25 0
v -4 -25 0
v -4 -24 0
v -3 -24 0
v -2 -25 0
v -3 -25 0
v -3 -24 0
v -2 -24 0
v -1 -25 0
v -2 -25 0
v -2 -24 0
v -1 -24 0
v 0 -25 0
v -1 -25 0
v -1 -24 0
v 0 -24 0

# Texture cooridinates (Count = 68)
vt 0.075 0.4444444
vt 0.1 0.4444444
vt 0.1 0.4722222
vt 0.075 0.4722222
vt 0.125 0.4444444
vt 0.15 0.4444444
vt 0.15 0.4722222
vt 0.125 0.4722222
vt 0.125 0.5
vt 0.15 0.5
vt 0.15 0.5277778
vt 0.125 0.5277778
vt 0.175 0.5
vt 0.175 0.5277778
vt 0.175 0.4722222
vt 0.2 0.4722222
vt 0.2 0.5
vt 0.05 0.6111111
vt 0.075 0.6111111
vt 0.075 0.6388889
vt 0.05 0.6388889
vt 0.8 0.8888889
vt 0.825 0.8888889
vt 0.825 0.9166667
vt 0.8 0.9166667
vt 0.775 0.8888889
vt 0.775 0.9166667
vt 0.8 0.8611111
vt 0.825 0.8611111
vt 0.775 0.8611111
vt 0.15 0.5555556
vt 0.125 0.5555556
vt 0.075 0.5555556
vt 0.1 0.5555556
vt 0.1 0.5833334
vt 0.075 0.5833334
vt 0.05 0.5555556
vt 0.05 0.5833334
vt 0 0.5277778
vt 0.025 0.5277778
vt 0.025 0.5555556
vt 0 0.5555556
vt 0.075 0.5
vt 0.1 0.5
vt 0.1 0.5277778
vt 0.075 0.5277778
vt 0.05 0.5
vt 0.05 0.5277778
vt 0.175 0.8333333
vt 0.2 0.8333333
vt 0.2 0.8611111
vt 0.175 0.8611111
vt 0.175 0.5555556
vt 0 0.4722222
vt 0.025 0.4722222
vt 0.025 0.5
vt 0 0.5
vt 0.125 0.9444444
vt 0.15 0.9444444
vt 0.15 0.9722222
vt 0.125 0.9722222
vt 0.1 0.9444444
vt 0.1 0.9722222
vt 0.125 0.9166667
vt 0.15 0.9166667
vt 0.1 0.9166667
vt 0.2 0.5277778
vt 0.2 0.5555556

# Normal
vn 0 0 -1

# Mesh description
g zelda_Test_Town_mesh_0002

# Faces
f 1/1/1 2/2/1 3/3/1 4/4/1
f 5/5/1 6/6/1 7/7/1 8/8/1
f 9/5/1 10/6/1 11/7/1 12/8/1
f 13/5/1 14/6/1 15/7/1 16/8/1
f 17/5/1 18/6/1 19/7/1 20/8/1
f 21/9/1 22/10/1 23/11/1 24/12/1
f 25/10/1 26/13/1 27/14/1 28/11/1
f 29/5/1 30/6/1 31/7/1 32/8/1
f 33/5/1 34/6/1 35/7/1 36/8/1
f 37/5/1 38/6/1 39/7/1 40/8/1
f 41/5/1 42/6/1 43/7/1 44/8/1
f 45/5/1 46/6/1 47/7/1 48/8/1
f 49/5/1 50/6/1 51/7/1 52/8/1
f 53/5/1 54/6/1 55/7/1 56/8/1
f 57/9/1 58/10/1 59/11/1 60/12/1
f 61/10/1 62/13/1 63/14/1 64/11/1
f 65/5/1 66/6/1 67/7/1 68/8/1
f 69/5/1 70/6/1 71/7/1 72/8/1
f 73/5/1 74/6/1 75/7/1 76/8/1
f 77/5/1 78/6/1 79/7/1 80/8/1
f 81/2/1 82/5/1 83/8/1 84/3/1
f 85/7/1 86/15/1 87/13/1 88/10/1
f 89/15/1 90/16/1 91/17/1 92/13/1
f 93/7/1 94/15/1 95/13/1 96/10/1
f 97/15/1 98/16/1 99/17/1 100/13/1
f 101/7/1 102/15/1 103/13/1 104/10/1
f 105/15/1 106/16/1 107/17/1 108/13/1
f 109/7/1 110/15/1 111/13/1 112/10/1
f 113/15/1 114/16/1 115/17/1 116/13/1
f 117/7/1 118/15/1 119/13/1 120/10/1
f 121/15/1 122/16/1 123/17/1 124/13/1
f 125/7/1 126/15/1 127/13/1 128/10/1
f 129/18/1 130/19/1 131/20/1 132/21/1
f 133/18/1 134/19/1 135/20/1 136/21/1
f 137/18/1 138/19/1 139/20/1 140/21/1
f 141/18/1 142/19/1 143/20/1 144/21/1
f 145/18/1 146/19/1 147/20/1 148/21/1
f 149/15/1 150/16/1 151/17/1 152/13/1
f 153/7/1 154/15/1 155/13/1 156/10/1
f 157/15/1 158/16/1 159/17/1 160/13/1
f 161/7/1 162/15/1 163/13/1 164/10/1
f 165/15/1 166/16/1 167/17/1 168/13/1
f 169/7/1 170/15/1 171/13/1 172/10/1
f 173/15/1 174/16/1 175/17/1 176/13/1
f 177/7/1 178/15/1 179/13/1 180/10/1
f 181/15/1 182/16/1 183/17/1 184/13/1
f 185/7/1 186/15/1 187/13/1 188/10/1
f 189/22/1 190/23/1 191/24/1 192/25/1
f 193/26/1 194/22/1 195/25/1 196/27/1
f 197/15/1 198/16/1 199/17/1 200/13/1
f 201/9/1 202/10/1 203/11/1 204/12/1
f 205/28/1 206/29/1 207/23/1 208/22/1
f 209/30/1 210/28/1 211/22/1 212/26/1
f 213/15/1 214/16/1 215/17/1 216/13/1
f 217/15/1 218/16/1 219/17/1 220/13/1
f 221/15/1 222/16/1 223/17/1 224/13/1
f 225/10/1 226/13/1 227/14/1 228/11/1
f 229/12/1 230/11/1 231/31/1 232/32/1
f 233/33/1 234/34/1 235/35/1 236/36/1
f 237/37/1 238/33/1 239/36/1 240/38/1
f 241/37/1 242/33/1 243/36/1 244/38/1
f 245/39/1 246/40/1 247/41/1 248/42/1
f 249/7/1 250/15/1 251/13/1 252/10/1
f 253/7/1 254/15/1 255/13/1 256/10/1
f 257/7/1 258/15/1 259/13/1 260/10/1
f 261/43/1 262/44/1 263/45/1 264/46/1
f 265/44/1 266/9/1 267/12/1 268/45/1
f 269/44/1 270/9/1 271/12/1 272/45/1
f 273/47/1 274/43/1 275/46/1 276/48/1
f 277/7/1 278/15/1 279/13/1 280/10/1
f 281/49/1 282/50/1 283/51/1 284/52/1
f 285/3/1 286/8/1 287/9/1 288/44/1
f 289/38/1 290/36/1 291/19/1 292/18/1
f 293/38/1 294/36/1 295/19/1 296/18/1
f 297/3/1 298/8/1 299/9/1 300/44/1
f 301/11/1 302/14/1 303/53/1 304/31/1
f 305/7/1 306/15/1 307/13/1 308/10/1
f 309/3/1 310/8/1 311/9/1 312/44/1
f 313/38/1 314/36/1 315/19/1 316/18/1
f 317/38/1 318/36/1 319/19/1 320/18/1
f 321/3/1 322/8/1 323/9/1 324/44/1
f 325/15/1 326/16/1 327/17/1 328/13/1
f 329/7/1 330/15/1 331/13/1 332/10/1
f 333/3/1 334/8/1 335/9/1 336/44/1
f 337/38/1 338/36/1 339/19/1 340/18/1
f 341/38/1 342/36/1 343/19/1 344/18/1
f 345/54/1 346/55/1 347/56/1 348/57/1
f 349/58/1 350/59/1 351/60/1 352/61/1
f 353/62/1 354/58/1 355/61/1 356/63/1
f 357/15/1 358/16/1 359/17/1 360/13/1
f 361/7/1 362/15/1 363/13/1 364/10/1
f 365/3/1 366/8/1 367/9/1 368/44/1
f 369/38/1 370/36/1 371/19/1 372/18/1
f 373/38/1 374/36/1 375/19/1 376/18/1
f 377/64/1 378/65/1 379/59/1 380/58/1
f 381/66/1 382/64/1 383/58/1 384/62/1
f 385/15/1 386/16/1 387/17/1 388/13/1
f 389/14/1 390/67/1 391/68/1 392/53/1
f 393/8/1 394/7/1 395/10/1 396/9/1
f 397/8/1 398/7/1 399/10/1 400/9/1
f 401/8/1 402/7/1 403/10/1 404/9/1
f 405/8/1 406/7/1 407/10/1 408/9/1
f 409/8/1 410/7/1 411/10/1 412/9/1
f 413/8/1 414/7/1 415/10/1 416/9/1
f 417/8/1 418/7/1 419/10/1 420/9/1
f 421/8/1 422/7/1 423/10/1 424/9/1
f 425/8/1 426/7/1 427/10/1 428/9/1
f 429/8/1 430/7/1 431/10/1 432/9/1
f 433/8/1 434/7/1 435/10/1 436/9/1
f 437/8/1 438/7/1 439/10/1 440/9/1
f 441/8/1 442/7/1 443/10/1 444/9/1
f 445/8/1 446/7/1 447/10/1 448/9/1
f 449/8/1 450/7/1 451/10/1 452/9/1
f 453/8/1 454/7/1 455/10/1 456/9/1
f 457/8/1 458/7/1 459/10/1 460/9/1
f 461/8/1 462/7/1 463/10/1 464/9/1
f 465/8/1 466/7/1 467/10/1 468/9/1
f 469/8/1 470/7/1 471/10/1 472/9/1
f 473/8/1 474/7/1 475/10/1 476/9/1
f 477/8/1 478/7/1 479/10/1 480/9/1
f 481/8/1 482/7/1 483/10/1 484/9/1
f 485/13/1 486/17/1 487/67/1 488/14/1

